<svg width="26" height="26" viewBox="0 0 26 26" fill="none" xmlns="http://www.w3.org/2000/svg">
<path fill-rule="evenodd" clip-rule="evenodd" d="M3.62637 12.0185C4.64416 10.8664 6.18846 9.54688 8.1715 8.64825C7.09343 9.84105 6.4976 11.3922 6.49991 13C6.49991 14.6737 7.13258 16.1996 8.1715 17.3518C6.189 16.4531 4.64416 15.1336 3.62637 13.9815C3.38394 13.7121 3.2498 13.3624 3.2498 13C3.2498 12.6376 3.38394 12.2879 3.62637 12.0185ZM2.81441 11.3013C4.66041 9.21158 8.16879 6.55038 12.9035 6.50054L12.9999 6.5H13.0378C17.8402 6.5 21.3974 9.19208 23.2607 11.3013C23.678 11.7688 23.9086 12.3734 23.9086 13C23.9086 13.6266 23.678 14.2312 23.2607 14.6987C21.3974 16.8079 17.8402 19.5 13.0378 19.5H12.9999L12.9035 19.4995C8.16933 19.4496 4.66041 16.7884 2.81441 14.6987C2.39714 14.2312 2.1665 13.6266 2.1665 13C2.1665 12.3734 2.39714 11.7688 2.81441 11.3013ZM13.0151 7.58333L12.917 7.58388C9.96333 7.62829 7.58325 10.036 7.58325 13C7.58325 15.964 9.96387 18.3717 12.917 18.4161L13.0151 18.4167C15.9997 18.4085 18.4166 15.9862 18.4166 13C18.4166 10.0138 15.9997 7.59146 13.0151 7.58333ZM19.4999 13C19.4999 14.7008 18.8461 16.25 17.7763 17.4086C19.8206 16.5095 21.4093 15.158 22.4487 13.9815C22.6912 13.7121 22.8253 13.3624 22.8253 13C22.8253 12.6376 22.6912 12.2879 22.4487 12.0185C21.4093 10.842 19.8206 9.49054 17.7763 8.59138C18.8865 9.79081 19.5022 11.3656 19.4999 13ZM13.0378 16.25C13.587 16.2501 14.1272 16.1111 14.608 15.8459C15.0889 15.5807 15.4947 15.1981 15.7876 14.7336C16.0805 14.2691 16.251 13.7379 16.283 13.1897C16.3151 12.6416 16.2077 12.0942 15.971 11.5987C15.871 11.7022 15.7515 11.7847 15.6193 11.8415C15.4871 11.8983 15.345 11.9281 15.2011 11.9294C15.0573 11.9306 14.9146 11.9032 14.7815 11.8488C14.6484 11.7943 14.5274 11.7139 14.4257 11.6121C14.324 11.5104 14.2435 11.3895 14.1891 11.2563C14.1346 11.1232 14.1072 10.9805 14.1084 10.8367C14.1097 10.6928 14.1396 10.5507 14.1963 10.4185C14.2531 10.2863 14.3357 10.1668 14.4391 10.0669C13.999 9.85683 13.5172 9.74853 13.0295 9.75002C12.5418 9.7515 12.0607 9.86272 11.6218 10.0754C11.183 10.2882 10.7976 10.5969 10.4943 10.9788C10.191 11.3607 9.97755 11.806 9.86976 12.2817C9.76197 12.7573 9.7626 13.2511 9.87161 13.7265C9.98062 14.2018 10.1952 14.6465 10.4995 15.0277C10.8038 15.4088 11.1899 15.7166 11.6293 15.9282C12.0687 16.1398 12.5501 16.2498 13.0378 16.25Z" fill="black"/>
</svg>
