<svg width="20" height="20" viewBox="0 0 20 20" fill="none" xmlns="http://www.w3.org/2000/svg">
<g clip-path="url(#clip0_820_843)">
<path d="M10 1.66663C11.9891 1.66663 13.8968 2.4568 15.3033 3.86333C16.7098 5.26985 17.5 7.1775 17.5 9.16663C17.5 11.7283 16.1033 13.825 14.6317 15.3291C13.8963 16.0724 13.094 16.7463 12.235 17.3425L11.88 17.5841L11.7133 17.695L11.3992 17.895L11.1192 18.0658L10.7725 18.2675C10.5371 18.4015 10.2709 18.4719 10 18.4719C9.72913 18.4719 9.46291 18.4015 9.2275 18.2675L8.88083 18.0658L8.4475 17.7991L8.2875 17.695L7.94583 17.4675C7.01915 16.8402 6.15589 16.1241 5.36833 15.3291C3.89667 13.8233 2.5 11.7283 2.5 9.16663C2.5 7.1775 3.29018 5.26985 4.6967 3.86333C6.10322 2.4568 8.01088 1.66663 10 1.66663V1.66663ZM10 6.66663C9.6717 6.66663 9.34661 6.73129 9.04329 6.85693C8.73998 6.98256 8.46438 7.16671 8.23223 7.39886C8.00009 7.63101 7.81594 7.9066 7.6903 8.20992C7.56466 8.51323 7.5 8.83832 7.5 9.16663C7.5 9.49493 7.56466 9.82002 7.6903 10.1233C7.81594 10.4266 8.00009 10.7022 8.23223 10.9344C8.46438 11.1665 8.73998 11.3507 9.04329 11.4763C9.34661 11.602 9.6717 11.6666 10 11.6666C10.663 11.6666 11.2989 11.4032 11.7678 10.9344C12.2366 10.4656 12.5 9.82967 12.5 9.16663C12.5 8.50359 12.2366 7.8677 11.7678 7.39886C11.2989 6.93002 10.663 6.66663 10 6.66663V6.66663Z" fill="black"/>
</g>
<defs>
<clipPath id="clip0_820_843">
<rect width="20" height="20" fill="white"/>
</clipPath>
</defs>
</svg>
