<svg width="26" height="26" viewBox="0 0 26 26" fill="none" xmlns="http://www.w3.org/2000/svg">
<path d="M21.1249 23.5625H20.9868C5.02118 22.6444 2.7543 9.17313 2.43743 5.06188C2.41189 4.74222 2.44969 4.42067 2.54864 4.11565C2.64759 3.81062 2.80575 3.52812 3.01407 3.28433C3.22239 3.04054 3.47676 2.84025 3.76262 2.69493C4.04848 2.54962 4.3602 2.46214 4.67993 2.4375H9.1568C9.48226 2.43719 9.8003 2.5346 10.0698 2.71713C10.3392 2.89966 10.5476 3.15889 10.6681 3.46125L11.9031 6.5C12.022 6.79538 12.0515 7.11919 11.9879 7.4312C11.9244 7.74321 11.7705 8.02967 11.5456 8.255L9.81493 10.0019C10.0853 11.5381 10.821 12.9542 11.9225 14.0587C13.024 15.1631 14.4382 15.9025 15.9737 16.1769L17.7368 14.43C17.9655 14.2075 18.2547 14.0573 18.5682 13.998C18.8818 13.9388 19.2058 13.9732 19.4999 14.0969L22.5631 15.3238C22.8608 15.448 23.1149 15.658 23.2929 15.9272C23.4709 16.1963 23.5647 16.5123 23.5624 16.835V21.125C23.5624 21.7715 23.3056 22.3915 22.8485 22.8486C22.3914 23.3057 21.7714 23.5625 21.1249 23.5625ZM4.87493 4.0625C4.65944 4.0625 4.45278 4.1481 4.3004 4.30048C4.14803 4.45285 4.06243 4.65951 4.06243 4.875V4.94C4.43618 9.75 6.83305 21.125 21.0762 21.9375C21.1829 21.9441 21.2899 21.9296 21.391 21.8947C21.4921 21.8599 21.5854 21.8054 21.6654 21.7344C21.7454 21.6635 21.8106 21.5774 21.8573 21.4812C21.904 21.385 21.9312 21.2805 21.9374 21.1737V16.835L18.8743 15.6081L16.5424 17.9237L16.1524 17.875C9.08368 16.9894 8.12493 9.92063 8.12493 9.8475L8.07618 9.4575L10.3837 7.12563L9.16493 4.0625H4.87493Z" fill="black"/>
</svg>
